<?xml version="1.0" standalone="no"?>
<svg xmlns="http://www.w3.org/2000/svg"
 width="320" height="320" viewBox="96 0 320 320"
 preserveAspectRatio="xMidYMid meet">
<!-- Plate-free variant of logo-icon.svg.
     The source SVG draws the house+key as a knockout — a dark plate
     with the icon shape cut out, revealing a white backdrop. Here we
     drop the outer plate subpath + the white backdrop and fill the
     remaining cutout shape directly. Result: just the house+key
     silhouette in white, no plate. Designed for the dark-mode admin
     UI; not reusable on light surfaces without re-tinting. -->
<g transform="translate(0,512) scale(0.1,-0.1)" fill="#ffffff" stroke="none">
<path d="M2765 3984 c110 -97 285 -251 389 -343 285 -251 306 -271 306 -297 0
-23 -42 -64 -66 -64 -7 0 -29 13 -47 30 -19 16 -37 27 -41 23 -3 -3 -6 -156
-6 -338 l0 -332 -24 -26 c-13 -14 -35 -29 -48 -32 -12 -3 -133 -4 -268 -3
l-245 3 -37 72 c-40 80 -72 114 -133 143 -46 23 -128 26 -188 8 -56 -17 -140
-102 -161 -164 -48 -141 20 -306 148 -358 53 -22 151 -20 201 3 50 23 109 84
129 133 9 20 21 40 28 44 20 12 651 4 666 -8 6 -6 12 -25 12 -43 0 -39 -13
-51 -63 -60 l-37 -7 2 -74 c3 -81 -5 -97 -51 -92 -26 3 -36 17 -46 61 -5 25
-10 28 -37 25 -27 -2 -33 -8 -39 -34 -9 -46 -17 -54 -54 -54 -45 0 -53 18 -47
101 l5 69 -121 0 -120 0 -21 -32 c-34 -55 -103 -116 -164 -143 -48 -22 -73
-27 -142 -27 -73 0 -93 4 -153 32 -129 59 -218 184 -231 324 l-6 71 -107 5
c-101 5 -109 7 -135 33 l-28 27 -3 340 c-1 187 -5 340 -9 340 -3 0 -21 -13
-40 -30 -41 -36 -62 -38 -92 -6 -34 36 -22 65 56 133 74 63 435 384 443 392 3
4 43 40 90 81 47 41 90 80 96 85 170 153 185 164 219 165 12 0 100 -71 220
-176z"/>
</g>
</svg>
