<?xml version="1.0" standalone="no"?>
<svg xmlns="http://www.w3.org/2000/svg"
 width="512" height="512" viewBox="0 0 512 512"
 preserveAspectRatio="xMidYMid meet">
<g transform="translate(0,512) scale(0.1,-0.1)" fill="#122c69" stroke="none">
<path d="M0 2560 l0 -2560 2560 0 2560 0 0 2560 0 2560 -2560 0 -2560 0 0
-2560z m2765 1424 c110 -97 285 -251 389 -343 285 -251 306 -271 306 -297 0
-23 -42 -64 -66 -64 -7 0 -29 13 -47 30 -19 16 -37 27 -41 23 -3 -3 -6 -156
-6 -338 l0 -332 -24 -26 c-13 -14 -35 -29 -48 -32 -12 -3 -133 -4 -268 -3
l-245 3 -37 72 c-40 80 -72 114 -133 143 -46 23 -128 26 -188 8 -56 -17 -140
-102 -161 -164 -48 -141 20 -306 148 -358 53 -22 151 -20 201 3 50 23 109 84
129 133 9 20 21 40 28 44 20 12 651 4 666 -8 6 -6 12 -25 12 -43 0 -39 -13
-51 -63 -60 l-37 -7 2 -74 c3 -81 -5 -97 -51 -92 -26 3 -36 17 -46 61 -5 25
-10 28 -37 25 -27 -2 -33 -8 -39 -34 -9 -46 -17 -54 -54 -54 -45 0 -53 18 -47
101 l5 69 -121 0 -120 0 -21 -32 c-34 -55 -103 -116 -164 -143 -48 -22 -73
-27 -142 -27 -73 0 -93 4 -153 32 -129 59 -218 184 -231 324 l-6 71 -107 5
c-101 5 -109 7 -135 33 l-28 27 -3 340 c-1 187 -5 340 -9 340 -3 0 -21 -13
-40 -30 -41 -36 -62 -38 -92 -6 -34 36 -22 65 56 133 74 63 435 384 443 392 3
4 43 40 90 81 47 41 90 80 96 85 170 153 185 164 219 165 12 0 100 -71 220
-176z m58 -2162 c73 -42 97 -132 58 -217 -10 -22 -51 -73 -90 -112 -39 -40
-71 -75 -71 -78 0 -3 43 -5 95 -5 l95 0 0 -45 0 -45 -175 0 c-190 0 -194 1
-181 54 3 13 50 70 103 126 143 149 161 183 119 225 -43 43 -91 32 -121 -29
-7 -15 -22 -22 -49 -24 -49 -4 -59 6 -50 53 8 44 60 100 107 114 44 14 122 6
160 -17z m-2023 -87 l0 -106 98 3 97 3 3 103 3 102 49 0 50 0 2 -240 c1 -132
2 -248 2 -257 1 -15 -9 -19 -51 -21 l-53 -3 0 104 0 105 -31 6 c-17 3 -62 6
-100 6 l-69 0 0 -110 0 -110 -50 0 -50 0 0 260 0 260 50 0 50 0 0 -105z m2277
15 c1 -47 2 -93 2 -103 1 -16 10 -17 89 -15 l87 3 3 103 3 102 49 0 50 0 0
-260 0 -260 -50 0 -49 0 -3 108 -3 107 -89 0 -88 0 -2 -105 -1 -105 -52 -3
-53 -3 0 261 0 261 53 -3 52 -3 2 -85z m1238 5 l0 -50 45 -5 c44 -5 45 -6 45
-40 0 -34 -1 -35 -45 -40 l-45 -5 -3 -75 c-2 -41 0 -90 3 -107 6 -31 8 -33 51
-33 l45 0 -3 -37 c-2 -30 -8 -38 -31 -46 -39 -13 -114 0 -136 24 -25 27 -31
62 -31 180 0 99 0 99 -25 99 -22 0 -25 4 -25 40 0 36 3 40 24 40 23 0 25 5 28
47 3 44 5 48 33 54 62 14 70 9 70 -46z m-2899 -64 c23 -10 54 -36 70 -57 25
-33 29 -47 32 -119 4 -79 3 -82 -30 -125 -41 -55 -88 -80 -151 -80 -121 0
-197 95 -184 226 7 71 28 106 83 143 56 37 116 41 180 12z m414 2 c14 -9 28
-21 31 -26 4 -6 21 0 39 13 42 30 105 37 153 16 62 -25 77 -72 77 -239 l0
-138 -52 3 -53 3 -3 130 c-2 118 -4 132 -23 148 -28 22 -54 22 -79 -3 -18 -18
-20 -33 -20 -150 l0 -130 -49 0 -49 0 -4 136 c-3 121 -5 137 -22 150 -27 19
-49 18 -77 -4 -21 -18 -23 -28 -26 -148 l-3 -129 -50 -3 -50 -3 0 190 0 191
45 0 c28 0 47 -5 52 -15 7 -12 13 -12 38 5 37 24 92 26 125 3z m601 -6 c45
-30 77 -79 85 -133 11 -74 10 -74 -126 -74 -108 0 -120 -2 -120 -18 0 -10 7
-28 16 -40 12 -18 25 -22 63 -22 31 0 53 5 61 15 8 9 30 15 56 15 36 0 44 -3
44 -19 0 -10 -10 -31 -22 -46 -67 -86 -239 -68 -296 30 -20 35 -22 51 -19 126
2 68 7 91 25 116 49 69 167 94 233 50z m1274 -12 c101 -76 108 -235 16 -318
-45 -40 -90 -53 -159 -43 -106 14 -167 113 -148 240 8 50 62 120 110 142 48
22 139 12 181 -21z m355 13 c46 -23 76 -67 66 -94 -9 -22 -83 -19 -96 5 -13
25 -42 34 -80 26 -23 -5 -30 -12 -30 -30 0 -21 7 -25 58 -36 143 -31 197 -104
140 -189 -27 -40 -73 -58 -148 -59 -68 -1 -117 22 -143 67 -27 46 -17 62 37
62 36 0 46 -4 51 -20 13 -39 125 -35 125 5 0 17 -28 30 -98 46 -58 13 -97 36
-111 66 -54 119 96 218 229 151z"/>
<path d="M2475 3962 c-28 -26 -73 -67 -102 -92 -29 -25 -147 -128 -262 -230
l-210 -185 0 -352 c-1 -193 2 -358 5 -367 5 -13 23 -16 94 -16 l88 0 13 33
c19 46 116 145 170 173 78 39 163 50 248 31 113 -26 197 -88 255 -189 l27 -48
177 0 c125 0 182 4 190 12 9 9 12 104 12 368 l-1 355 -141 125 c-78 69 -165
145 -193 170 -27 25 -84 74 -125 110 -41 36 -77 67 -80 70 -30 31 -93 80 -103
80 -6 0 -35 -22 -62 -48z m35 -512 l0 -91 -92 3 -93 3 -3 74 c-2 41 -1 80 2
88 4 9 29 13 96 13 l90 0 0 -90z m248 20 c5 -111 6 -110 -98 -110 l-90 0 0 90
0 91 93 -3 92 -3 3 -65z m-264 -166 c13 -5 16 -23 16 -95 l0 -90 -92 3 -93 3
-3 84 c-2 61 1 87 10 92 15 10 139 12 162 3z m255 -8 c8 -9 11 -43 9 -93 l-3
-78 -92 -3 -93 -3 0 89 c0 49 3 92 7 95 13 14 160 8 172 -7z"/>
<path d="M1285 1595 c-21 -20 -25 -34 -25 -88 0 -77 21 -107 75 -107 62 0 96
63 81 146 -14 72 -83 98 -131 49z"/>
<path d="M2298 1608 c-9 -7 -18 -22 -20 -33 -3 -18 3 -20 65 -23 61 -3 67 -1
67 17 0 44 -73 69 -112 39z"/>
<path d="M3549 1601 c-19 -15 -24 -30 -27 -84 -4 -60 -2 -68 21 -91 69 -69
154 7 133 119 -13 67 -78 96 -127 56z"/>
</g>
</svg>
